<svg id="Capa_1" enable-background="new 0 0 510 510" height="512" viewBox="0 0 510 510" width="512" xmlns="http://www.w3.org/2000/svg" xmlns:xlink="http://www.w3.org/1999/xlink"><linearGradient id="SVGID_1_" gradientUnits="userSpaceOnUse" x1="197.606" x2="404.076" y1="218.673" y2="425.143"><stop offset="0" stop-color="#eaf6ff"/><stop offset="1" stop-color="#b3dafe"/></linearGradient><linearGradient id="lg1"><stop offset="0" stop-color="#d8ecfe" stop-opacity="0"/><stop offset=".7867" stop-color="#9bd1fe" stop-opacity=".787"/><stop offset="1" stop-color="#8ac9fe"/></linearGradient><linearGradient id="SVGID_2_" gradientUnits="userSpaceOnUse" x1="255" x2="255" xlink:href="#lg1" y1="403.703" y2="-59.777"/><linearGradient id="lg2"><stop offset="0" stop-color="#8ac9fe" stop-opacity="0"/><stop offset=".0634" stop-color="#85c2f3" stop-opacity=".063"/><stop offset=".3677" stop-color="#70a3c3" stop-opacity=".368"/><stop offset=".6362" stop-color="#608ca0" stop-opacity=".636"/><stop offset=".8561" stop-color="#577e8b" stop-opacity=".856"/><stop offset="1" stop-color="#537983"/></linearGradient><linearGradient id="SVGID_3_" gradientUnits="userSpaceOnUse" x1="276.835" x2="57.826" xlink:href="#lg2" y1="437.165" y2="218.156"/><linearGradient id="SVGID_4_" gradientUnits="userSpaceOnUse" x1="449.084" x2="225.084" xlink:href="#lg2" y1="412.109" y2="255.109"/><linearGradient id="lg3"><stop offset="0" stop-color="#fd4755"/><stop offset="1" stop-color="#d2024e"/></linearGradient><linearGradient id="SVGID_5_" gradientUnits="userSpaceOnUse" x1="255" x2="255" xlink:href="#lg3" y1="40" y2="158.271"/><linearGradient id="SVGID_6_" gradientUnits="userSpaceOnUse" x1="255" x2="255" xlink:href="#lg1" y1="432" y2="494.032"/><linearGradient id="SVGID_7_" gradientUnits="userSpaceOnUse" x1="126.19" x2="126.19" xlink:href="#lg3" y1="87.632" y2="24.282"/><linearGradient id="lg4"><stop offset="0" stop-color="#fee97d"/><stop offset="1" stop-color="#fac600"/></linearGradient><linearGradient id="SVGID_8_" gradientUnits="userSpaceOnUse" x1="126.19" x2="126.19" xlink:href="#lg4" y1="59.333" y2="76"/><linearGradient id="SVGID_9_" gradientUnits="userSpaceOnUse" x1="383.81" x2="383.81" xlink:href="#lg3" y1="87.632" y2="24.282"/><linearGradient id="SVGID_10_" gradientUnits="userSpaceOnUse" x1="383.81" x2="383.81" xlink:href="#lg4" y1="59.333" y2="76"/><linearGradient id="lg5"><stop offset="0" stop-color="#a2e62e"/><stop offset=".1231" stop-color="#97de30"/><stop offset=".3395" stop-color="#79cb36"/><stop offset=".6234" stop-color="#4aab3f"/><stop offset=".9609" stop-color="#09804c"/><stop offset="1" stop-color="#017b4e"/></linearGradient><linearGradient id="SVGID_11_" gradientUnits="userSpaceOnUse" x1="155.801" x2="242.796" xlink:href="#lg5" y1="307.389" y2="493.38"/><linearGradient id="SVGID_12_" gradientUnits="userSpaceOnUse" x1="316.186" x2="395.242" xlink:href="#lg5" y1="275.414" y2="452.129"/><linearGradient id="SVGID_13_" gradientUnits="userSpaceOnUse" x1="241.477" x2="-21.274" y1="294.523" y2="31.771"><stop offset="0" stop-color="#017b4e" stop-opacity="0"/><stop offset=".4693" stop-color="#01764a" stop-opacity=".469"/><stop offset="1" stop-color="#026841"/></linearGradient><g><path d="m464.254 510h-418.508c-16.666 0-30.176-13.51-30.176-30.176v-407.515c0-16.666 13.51-30.176 30.176-30.176h418.508c16.666 0 30.176 13.51 30.176 30.176v407.516c0 16.665-13.51 30.175-30.176 30.175z" fill="url(#SVGID_1_)"/><path d="m388.375 510h75.879c16.666 0 30.176-13.51 30.176-30.176v-407.515c0-16.666-13.51-30.176-30.176-30.176h-418.508c-16.666 0-30.176 13.51-30.176 30.176v64.887z" fill="url(#SVGID_2_)"/><path d="m494.43 479.824v-.559l-261.11-261.109c-15.024-17.939-39.381-27.393-63.612-27.393-38.427 0-76.179 23.595-76.179 64.718 0 14.182 4.514 21.592 11.526 24.955l38.866 40.036c-26.986 19.839-54.437 40.907-54.437 67.815v32.696c0 5.336 4.021 9.665 9.206 12.498l76.52 76.52h289.043c16.667-.001 30.177-13.511 30.177-30.177z" fill="url(#SVGID_3_)"/><path d="m494.43 479.824v-174.83l-86.839-86.839c-15.024-17.939-39.381-27.393-63.613-27.393-38.427 0-76.179 23.595-76.179 64.718 0 14.182 4.514 21.592 11.526 24.955l38.866 40.036c-26.986 19.839-54.437 40.907-54.437 67.815v32.696c0 5.336 4.021 9.665 9.206 12.498l76.52 76.52h114.772c16.668 0 30.178-13.51 30.178-30.176z" fill="url(#SVGID_4_)"/><path d="m480.754 140.372h-451.508c-16.152 0-29.246-13.094-29.246-29.246v-81.88c0-16.152 13.094-29.246 29.246-29.246h451.508c16.152 0 29.246 13.094 29.246 29.246v81.88c0 16.152-13.094 29.246-29.246 29.246z" fill="url(#SVGID_5_)"/><path d="m15.57 384v95.824c0 16.666 13.51 30.176 30.176 30.176h418.508c16.666 0 30.176-13.51 30.176-30.176v-95.824z" fill="url(#SVGID_6_)"/><g><g><path d="m166.162 102.161h-79.944c-17.659 0-31.975-14.316-31.975-31.975 0-17.659 14.316-31.975 31.975-31.975h79.943c17.659 0 31.975 14.316 31.975 31.975 0 17.659-14.315 31.975-31.974 31.975z" fill="url(#SVGID_7_)"/><path d="m165.663 84.284h-78.946c-6.58 0-11.915-5.334-11.915-11.915v-4.367c0-6.58 5.334-11.915 11.915-11.915h78.946c6.58 0 11.915 5.334 11.915 11.915v4.367c0 6.581-5.335 11.915-11.915 11.915z" fill="url(#SVGID_8_)"/></g><g><path d="m423.782 102.161h-79.943c-17.659 0-31.975-14.316-31.975-31.975 0-17.659 14.316-31.975 31.975-31.975h79.943c17.659 0 31.975 14.316 31.975 31.975-.001 17.659-14.316 31.975-31.975 31.975z" fill="url(#SVGID_9_)"/><path d="m423.283 84.284h-78.946c-6.58 0-11.915-5.334-11.915-11.915v-4.367c0-6.58 5.334-11.915 11.915-11.915h78.946c6.58 0 11.915 5.334 11.915 11.915v4.367c0 6.581-5.335 11.915-11.915 11.915z" fill="url(#SVGID_10_)"/></g></g><g><path d="m168.708 189.763c39.099 0 78.537 24.606 78.537 69.774 0 73.144-104.156 97.076-104.156 127.75v3.033h88.314c8.426 0 15.842 10.449 15.842 22.584s-7.415 23.258-15.842 23.258h-119.997c-9.438 0-22.921-6.404-22.921-16.179v-32.696c0-52.92 106.178-83.257 106.178-126.065 0-10.786-6.742-23.932-25.618-23.932-13.482 0-25.279 6.741-25.279 25.28 0 9.775-10.45 19.213-27.641 19.213-13.482 0-23.595-6.067-23.595-27.302-.001-41.124 37.751-64.718 76.178-64.718z" fill="url(#SVGID_11_)"/><path d="m342.979 189.763c39.099 0 78.537 24.606 78.537 69.774 0 73.144-104.156 97.076-104.156 127.75v3.033h88.314c8.426 0 15.842 10.449 15.842 22.584s-7.415 23.258-15.842 23.258h-119.998c-9.438 0-22.921-6.404-22.921-16.179v-32.696c0-52.92 106.178-83.257 106.178-126.065 0-10.786-6.742-23.932-25.618-23.932-13.482 0-25.279 6.741-25.279 25.28 0 9.775-10.45 19.213-27.641 19.213-13.482 0-23.595-6.067-23.595-27.302 0-41.124 37.752-64.718 76.179-64.718z" fill="url(#SVGID_12_)"/></g><path d="m168.708 189.763c-27.155 0-53.954 11.796-67.351 33.219l42.161 42.161c.16-.851.246-1.711.246-2.573 0-18.539 11.797-25.28 25.279-25.28 18.877 0 25.619 13.145 25.619 23.932 0 12.153-8.563 23.301-20.82 34.246l34.051 34.051c21.169-17.459 39.351-39.424 39.351-69.983.001-45.167-39.437-69.773-78.536-69.773z" fill="url(#SVGID_13_)"/></g></svg>