<svg id="Capa_1" enable-background="new 0 0 510 510" height="512" viewBox="0 0 510 510" width="512" xmlns="http://www.w3.org/2000/svg" xmlns:xlink="http://www.w3.org/1999/xlink"><linearGradient id="lg1"><stop offset="0" stop-color="#a2e62e"/><stop offset=".1231" stop-color="#97de30"/><stop offset=".3395" stop-color="#79cb36"/><stop offset=".6234" stop-color="#4aab3f"/><stop offset=".9609" stop-color="#09804c"/><stop offset="1" stop-color="#017b4e"/></linearGradient><linearGradient id="SVGID_1_" gradientUnits="userSpaceOnUse" x1="276.73" x2="460.263" xlink:href="#lg1" y1="299.021" y2="482.554"/><linearGradient id="lg2"><stop offset="0" stop-color="#017b4e" stop-opacity="0"/><stop offset="1" stop-color="#026841"/></linearGradient><linearGradient id="SVGID_2_" gradientUnits="userSpaceOnUse" x1="452.106" x2="490.185" xlink:href="#lg2" y1="323.894" y2="361.973"/><linearGradient id="SVGID_3_" gradientUnits="userSpaceOnUse" x1="343.8" x2="343.8" xlink:href="#lg2" y1="393.333" y2="476.024"/><linearGradient id="lg3"><stop offset="0" stop-color="#017b4e" stop-opacity="0"/><stop offset=".4693" stop-color="#01764a" stop-opacity=".469"/><stop offset="1" stop-color="#026841"/></linearGradient><linearGradient id="SVGID_4_" gradientUnits="userSpaceOnUse" x1="298.402" x2="345.545" xlink:href="#lg3" y1="466.366" y2="466.366"/><linearGradient id="SVGID_5_" gradientUnits="userSpaceOnUse" x1="298.402" x2="345.545" xlink:href="#lg3" y1="334.947" y2="334.947"/><linearGradient id="SVGID_6_" gradientUnits="userSpaceOnUse" x1="24.725" x2="225.905" xlink:href="#lg1" y1="198.792" y2="399.972"/><linearGradient id="SVGID_7_" gradientUnits="userSpaceOnUse" x1="75.015" x2="75.015" xlink:href="#lg3" y1="382" y2="435.371"/><linearGradient id="SVGID_8_" gradientUnits="userSpaceOnUse" x1="128.333" x2="46.661" xlink:href="#lg3" y1="397.687" y2="397.687"/><linearGradient id="SVGID_9_" gradientTransform="matrix(-.551 .834 -.834 -.551 1289.357 1945.277)" gradientUnits="userSpaceOnUse" x1="-777.461" x2="-730.318" xlink:href="#lg3" y1="1991.098" y2="1991.098"/><linearGradient id="SVGID_10_" gradientTransform="matrix(-.551 .834 -.834 -.551 1289.357 1945.277)" gradientUnits="userSpaceOnUse" x1="-777.461" x2="-730.318" xlink:href="#lg3" y1="1859.68" y2="1859.68"/><linearGradient id="SVGID_11_" gradientUnits="userSpaceOnUse" x1="214.236" x2="487.237" xlink:href="#lg1" y1="31.597" y2="304.598"/><linearGradient id="SVGID_12_" gradientUnits="userSpaceOnUse" x1="163.389" x2="257.755" xlink:href="#lg3" y1="131.389" y2="37.023"/><linearGradient id="SVGID_13_" gradientUnits="userSpaceOnUse" x1="370.47" x2="355.803" y1="233.144" y2="267.144"><stop offset="0" stop-color="#017b4e" stop-opacity="0"/><stop offset=".4844" stop-color="#01754a" stop-opacity=".484"/><stop offset="1" stop-color="#026841"/></linearGradient><linearGradient id="SVGID_14_" gradientTransform="matrix(-.551 -.834 -.834 .551 1289.357 657.6)" gradientUnits="userSpaceOnUse" x1="894.141" x2="941.284" xlink:href="#lg3" y1="575.441" y2="575.441"/><linearGradient id="SVGID_15_" gradientTransform="matrix(-.551 -.834 -.834 .551 1289.357 657.6)" gradientUnits="userSpaceOnUse" x1="894.141" x2="941.284" xlink:href="#lg3" y1="444.023" y2="444.023"/><g><g><path d="m497.574 319.88-17.092-25.651c-2.431-3.649-7.315-4.717-11.048-2.418l-46.813 28.84c-3.925 2.418-5.062 7.61-2.506 11.447l17.999 27.026c.373.566 1.248 1.89.173 3.885-1.073 1.995-2.661 1.995-3.338 1.995h-102.653v-40.583c0-15.576-17.311-24.885-30.298-16.314l-115.519 76.249c-11.705 7.717-11.705 24.885 0 32.602l115.519 76.249c12.987 8.571 30.298-.738 30.298-16.314v-40.644h102.653c27.652 0 52.971-15.126 66.075-39.477 13.104-24.35 11.782-53.814-3.45-76.892z" fill="url(#SVGID_1_)"/><path d="m434.948 365.004h38.437c22.959 0 36.979-25.472 24.456-44.715-.089-.137-.178-.273-.268-.409l-17.092-25.651c-2.431-3.649-7.315-4.717-11.048-2.418l-46.813 28.84c-3.925 2.418-5.062 7.61-2.506 11.447l17.999 27.026c.373.566 1.248 1.89.173 3.885-1.073 1.995-2.661 1.995-3.338 1.995z" fill="url(#SVGID_2_)"/><path d="m434.948 365.004h-102.652-116.499l-29.318 19.352c-11.705 7.717-11.705 24.885 0 32.602l115.519 76.249c12.987 8.571 30.298-.738 30.298-16.314v-40.644h102.653c27.652 0 52.972-15.126 66.075-39.477 5.378-9.993 8.322-20.847 8.876-31.768z" fill="url(#SVGID_3_)"/><g><g><path d="m332.3 436.26v40.638c0 15.568-17.313 24.885-30.304 16.308l-56.114-37.043c.885-2.194 1.454-3.859 1.454-4.586 0-2.855 1.163-6.687 3.026-9.793 1.863-3.119 4.454-5.524 7.295-5.524z" fill="url(#SVGID_4_)"/><path d="m332.3 324.415v40.638h-74.642c-5.696 0-10.321-9.608-10.321-15.317 0-.938-.608-2.617-1.454-4.586l56.114-37.044c12.99-8.576 30.303.741 30.303 16.309z" fill="url(#SVGID_5_)"/></g></g></g><g><path d="m159.617 132.861-127.298 54.348c-14.31 6.11-16.086 25.685-3.09 34.272l33.523 22.149-50.325 76.25c-16.131 24.44-16.661 56.04-.98 81.145 13.843 22.162 38.506 35.224 64.636 35.224h65.753c4.498 0 8.145-3.646 8.145-8.145v-54.956c0-4.498-3.646-8.144-8.144-8.144h-66.785c-.678 0-2.265 0-3.339-1.995-1.073-1.994-.199-3.319.175-3.885l50.305-76.22 34.247 22.628c12.996 8.586 30.306-.725 30.313-16.285l.064-138.414c.015-14.02-14.31-23.484-27.2-17.972z" fill="url(#SVGID_6_)"/><path d="m11.446 401.025c13.843 22.162 38.506 35.224 64.636 35.224h65.753c4.498 0 8.145-3.646 8.145-8.145v-54.956c0-4.498-3.646-8.144-8.144-8.144h-66.784c-.593 0-1.883 0-2.916-1.337h-72.086c.426 12.94 4.198 25.833 11.396 37.358z" fill="url(#SVGID_7_)"/><path d="m51.364 390.943c-12.498 19.376 1.173 45.161 24.23 45.304.162.001.325.002.487.002h65.753c4.498 0 8.145-3.646 8.145-8.145v-54.956c0-4.498-3.646-8.144-8.144-8.144h-66.783c-.678 0-2.265 0-3.339-1.995-1.073-1.995-.199-3.319.175-3.885z" fill="url(#SVGID_8_)"/><g><g><path d="m63.128 243.884-33.906-22.402c-12.989-8.582-11.219-28.163 3.099-34.273l61.84-26.397c1.342 1.948 2.418 3.34 3.025 3.741 2.382 1.574 4.938 4.657 6.502 7.923 1.575 3.274 2.154 6.761.588 9.132z" fill="url(#SVGID_9_)"/><path d="m156.443 305.539-33.906-22.402 41.147-62.277c3.14-4.752 13.706-3.315 18.469-.168.783.517 2.518.935 4.627 1.315l-.026 67.238c-.005 15.567-17.322 24.876-30.311 16.294z" fill="url(#SVGID_10_)"/></g></g></g><g><path d="m446.403 138.561c-.008-15.56-17.318-24.871-30.313-16.285l-33.953 22.433-64.511-97.479c-14.45-21.895-39.109-34.636-65.477-33.65-24.492.916-46.886 14.121-60.387 34.577l-23.283 35.277c-2.523 3.823-1.399 8.974 2.488 11.398l46.649 29.087c3.747 2.337 8.674 1.261 11.107-2.425l23.113-35.019c.308-.466 1.124-1.703 3.164-1.703 2.041 0 2.857 1.238 3.165 1.703l64.53 97.507-33.818 22.344c-12.996 8.586-11.22 28.161 3.09 34.272l127.298 54.349c12.891 5.512 27.215-3.953 27.201-17.972z" fill="url(#SVGID_11_)"/><path d="m191.762 48.158-23.283 35.277c-2.523 3.823-1.399 8.974 2.488 11.398l46.649 29.087c3.747 2.337 8.674 1.261 11.107-2.425l23.113-35.019c.308-.466 1.124-1.703 3.164-1.703 2.041 0 2.857 1.238 3.165 1.703l-23.137-37.619c-9.742-15.84-32.736-16.488-43.055-1.017-.07.106-.141.212-.211.318z" fill="url(#SVGID_12_)"/><path d="m322.676 183.956.018.028-33.818 22.344c-12.996 8.586-11.22 28.161 3.09 34.271l127.298 54.349c12.891 5.512 27.215-3.953 27.201-17.972l-.016-35.213-123.674-57.838z" fill="url(#SVGID_13_)"/><g><g><path d="m322.776 183.925-33.906 22.402c-12.989 8.582-11.219 28.163 3.099 34.273l61.84 26.397c1.342-1.948 2.418-3.34 3.025-3.741 2.382-1.574 4.938-4.657 6.502-7.923 1.575-3.274 2.154-6.761.588-9.132z" fill="url(#SVGID_14_)"/><path d="m416.092 122.27-33.906 22.402 41.147 62.277c3.14 4.752 13.706 3.315 18.469.168.783-.517 2.518-.935 4.627-1.315l-.026-67.238c-.005-15.568-17.322-24.876-30.311-16.294z" fill="url(#SVGID_15_)"/></g></g></g></g></svg>