<svg id="Capa_1" enable-background="new 0 0 511.996 511.996" height="512" viewBox="0 0 511.996 511.996" width="512" xmlns="http://www.w3.org/2000/svg"><g><g><path d="m151.748 178.342v-117.249c0-3.866 3.134-7 7-7h-51.061c-3.866 0-7 3.134-7 7v117.249z" fill="#ff9161"/><path d="m497.496 54.093h-389.809c-3.866 0-7 3.134-7 7v117.249h303.623c3.866 0 7 3.134 7 7v148.309h86.187c3.866 0 7-3.134 7-7v-265.558c-.001-3.866-3.135-7-7.001-7z" fill="#ffa95f"/><g><path d="m100.687 85.13h403.809v62.15h-403.809z" fill="#857e87"/><path d="m100.687 85.13h51.063v62.15h-51.063z" fill="#6f6571"/></g><path d="m404.309 457.903h-389.809c-3.866 0-7-3.134-7-7v-265.56c0-3.866 3.134-7 7-7h389.809c3.866 0 7 3.134 7 7.291v265.56c0 3.575-3.134 6.709-7 6.709z" fill="#857e87"/><path d="m58.561 450.903v-265.56c0-3.866 3.134-7 7-7h-51.061c-3.866 0-7 3.134-7 7v265.56c0 3.866 3.134 7 7 7h51.061c-3.866 0-7-3.134-7-7z" fill="#6f6571"/><path d="m92.579 271.236h-45.909c-4.478 0-8.108-3.63-8.108-8.108v-30.378c0-4.478 3.63-8.108 8.108-8.108h45.909c4.478 0 8.108 3.63 8.108 8.108v30.378c0 4.478-3.63 8.108-8.108 8.108z" fill="#fee07d"/><path d="m58.561 263.129v-30.378c0-4.478 3.63-8.108 8.108-8.108h-19.999c-4.478 0-8.108 3.63-8.108 8.108v30.378c0 4.478 3.63 8.108 8.108 8.108h19.999c-4.478-.001-8.108-3.631-8.108-8.108z" fill="#ffcf64"/><path d="m356.95 380.247c-8.104 0-15.24 4.138-19.414 10.415-4.174-6.278-11.31-10.415-19.414-10.415-8.103 0-15.24 4.138-19.414 10.415-4.174-6.278-11.31-10.415-19.414-10.415-12.866 0-23.297 10.43-23.297 23.297s10.43 23.297 23.297 23.297c8.103 0 15.24-4.138 19.414-10.415 4.174 6.278 11.31 10.415 19.414 10.415s15.24-4.138 19.414-10.415c4.174 6.278 11.31 10.415 19.414 10.415 12.866 0 23.297-10.43 23.297-23.297s-10.43-23.297-23.297-23.297z" fill="#b0efa5"/></g><g><path d="m497.496 46.593h-389.809c-7.995 0-14.5 6.505-14.5 14.5v109.749h-78.687c-7.995 0-14.5 6.505-14.5 14.5v181.412c0 4.142 3.358 7.5 7.5 7.5s7.5-3.358 7.5-7.5v-180.912h388.81v264.561h-388.81v-50.963c0-4.142-3.358-7.5-7.5-7.5s-7.5 3.358-7.5 7.5v51.463c0 7.995 6.505 14.5 14.5 14.5h389.81c7.995 0 14.5-6.505 14.5-14.5v-109.749h78.687c7.995 0 14.5-6.505 14.5-14.5v-59.179c0-4.142-3.357-7.5-7.5-7.5s-7.5 3.358-7.5 7.5v58.679h-78.187v-140.812c0-7.995-6.505-14.5-14.5-14.5h-296.123v-16.062h146.999c4.142 0 7.499-3.358 7.499-7.5s-3.357-7.5-7.499-7.5h-146.999v-47.15h388.809v47.15h-209.935c-4.143 0-7.5 3.358-7.5 7.5s3.357 7.5 7.5 7.5h209.936v79.811c0 4.142 3.357 7.5 7.5 7.5s7.5-3.358 7.5-7.5v-173.498c-.001-7.995-6.506-14.5-14.501-14.5zm-389.309 31.037v-16.037h388.809v16.037z"/><path d="m380.247 232.436c4.143 0 7.5-3.358 7.5-7.5s-3.357-7.5-7.5-7.5h-62.125c-4.143 0-7.5 3.358-7.5 7.5s3.357 7.5 7.5 7.5z"/><path d="m46.67 278.736h45.909c8.606 0 15.608-7.001 15.608-15.607v-30.379c0-8.606-7.001-15.607-15.608-15.607h-45.909c-8.606 0-15.607 7.001-15.607 15.607v30.378c0 8.607 7.001 15.608 15.607 15.608zm0-46.593c47.417.278 46.517-.585 46.517.607-.272 30.934.571 30.986-.608 30.986-47.417-.278-46.517.585-46.517-.607.273-30.934-.571-30.986.608-30.986z"/><path d="m38.563 309.799h217.436c4.143 0 7.5-3.358 7.5-7.5s-3.357-7.5-7.5-7.5h-217.436c-4.142 0-7.5 3.358-7.5 7.5s3.357 7.5 7.5 7.5z"/><path d="m38.563 340.861h93.187c4.142 0 7.5-3.358 7.5-7.5s-3.358-7.5-7.5-7.5h-93.187c-4.142 0-7.5 3.358-7.5 7.5s3.357 7.5 7.5 7.5z"/><path d="m162.812 325.861c-4.142 0-7.5 3.358-7.5 7.5s3.358 7.5 7.5 7.5h31.062c4.142 0 7.5-3.358 7.5-7.5s-3.358-7.5-7.5-7.5z"/><path d="m279.295 372.747c-16.981 0-30.797 13.815-30.797 30.797 0 16.981 13.815 30.796 30.797 30.796 7.179 0 13.998-2.481 19.414-6.883 5.416 4.402 12.235 6.883 19.414 6.883s13.998-2.481 19.413-6.883c5.416 4.401 12.236 6.883 19.414 6.883 16.981 0 30.797-13.815 30.797-30.796s-13.815-30.797-30.797-30.797c-7.178 0-13.998 2.481-19.414 6.883-5.415-4.402-12.234-6.883-19.413-6.883s-13.998 2.481-19.414 6.883c-5.416-4.402-12.235-6.883-19.414-6.883zm25.659 22.068c2.943-4.426 7.866-7.068 13.169-7.068 5.304 0 10.226 2.642 13.167 7.067 1.391 2.091 3.734 3.348 6.246 3.348 2.511 0 4.855-1.256 6.245-3.347 2.943-4.426 7.866-7.068 13.169-7.068 8.71 0 15.797 7.086 15.797 15.797 0 8.71-7.087 15.796-15.797 15.796-5.303 0-10.226-2.642-13.169-7.068-1.39-2.091-3.734-3.347-6.245-3.347-2.512 0-4.855 1.257-6.246 3.348-2.941 4.425-7.863 7.067-13.167 7.067-5.303 0-10.226-2.642-13.169-7.068-1.39-2.091-3.734-3.347-6.245-3.347s-4.855 1.256-6.245 3.347c-2.943 4.426-7.866 7.068-13.169 7.068-8.71 0-15.797-7.086-15.797-15.796s7.087-15.797 15.797-15.797c5.303 0 10.226 2.642 13.169 7.068 1.39 2.091 3.734 3.347 6.245 3.347s4.855-1.256 6.245-3.347z"/></g></g></svg>