<svg height="511pt" viewBox="-35 1 511 511.99888" width="511pt" xmlns="http://www.w3.org/2000/svg"><path d="m220.5 11.390625c-56.457031 30.015625-83.273438 51.988281-146.003906 69.027344v61.238281c95.824218-30.921875 143.070312-61.292969 146.039062-62.890625 3.867188 2.070313 69.703125 43.113281 149.96875 64.160156v65.769531c10 155.304688-140.304687 228.539063-150 231.964844-91.671875-45.953125-122.734375-113.855468-130.308594-131.675781-.121093-.285156-.230468-.574219-.347656-.859375 33.75 103.445312 115.1875 161.859375 162.652344 183.765625 47.464844-21.90625 128.894531-80.3125 162.648438-183.742187 9.605468-29.441407 15.355468-62.523438 15.355468-99.453126v-110.394531c-59.199218-16.078125-152.734375-56.683593-210.003906-86.910156zm0 0" fill="#ff9b4b"/><path d="m220.535156 78.765625c-32.917968 19.054687-53.5 28.101563-95.714844 45.160156v84.769531c0 20.453126 2.15625 40.222657 6.464844 59.203126l89.21875-89.21875 27.160156 27.160156 104.917969 104.28125c5.621094-13.21875 20.933594-49.066406 17.921875-101.425782v-65.769531c-44.308594-10.863281-110.226562-39.605469-149.96875-64.160156zm0 0" fill="#ffba50"/><path d="m131.285156 267.898438c7.242188 17.058593 16.039063 37.351562 27.328125 52.671874l61.890625-61.886718 101.746094 101.0625s18.246094-22.203125 30.332031-49.625l-132.078125-131.441406zm0 0" fill="#ee4a4d" fill-rule="evenodd"/><path d="m158.613281 320.570312c5.96875 7.925782 14.324219 20.898438 21.390625 28.304688 16.871094 17.703125 61.265625 53.746094 87.917969 63.15625 13.804687-9.238281 37.773437-31.636719 54.332031-52.285156l-101.75-101.0625zm0 0" fill="#ffba50" fill-rule="evenodd"/><g fill="#000001"><path d="m433.125 88.652344c-71.351562-19.382813-143.125-49.5625-207.570312-87.28125-3.121094-1.828125-6.984376-1.828125-10.101563 0-66.292969 38.796875-134.191406 67.347656-207.574219 87.28125-4.355468 1.183594-7.378906 5.136718-7.378906 9.648437v110.394531c0 113.421876 52.765625 188.488282 97.03125 231.488282 47.601562 46.242187 102.925781 71.816406 122.972656 71.816406 20.042969 0 75.363282-25.574219 122.964844-71.816406 44.269531-43 97.035156-118.066406 97.035156-231.488282v-110.394531c0-4.511719-3.023437-8.464843-7.378906-9.648437zm-12.625 120.042968c0 106.433594-49.46875 176.828126-90.964844 217.144532-47.164062 45.816406-97.761718 66.160156-109.03125 66.160156-11.273437 0-61.871094-20.34375-109.035156-66.160156-41.5-40.316406-90.96875-110.710938-90.96875-217.144532v-102.78125c70.4375-19.773437 135.996094-47.421874 200.003906-84.351562 62.398438 35.945312 131.269532 64.988281 199.996094 84.347656zm0 0"/><path d="m373.621094 133.425781c-50.953125-16.71875-100.847656-38.058593-148.296875-63.4375-.019531-.011719-.042969-.023437-.0625-.035156-.003907 0-.007813 0-.007813-.003906-.007812-.003907-.011718-.003907-.019531-.007813-.328125-.175781-.671875-.328125-1.019531-.46875-.089844-.035156-.175782-.0625-.265625-.09375-.269531-.101562-.546875-.1875-.832031-.261718-.101563-.03125-.203126-.058594-.308594-.082032-.277344-.066406-.5625-.117187-.851563-.15625-.097656-.015625-.1875-.03125-.285156-.042968-.375-.042969-.753906-.070313-1.136719-.070313h-.003906c-.015625 0-.027344.003906-.042969.003906-.371093 0-.734375.027344-1.097656.066407-.101563.011718-.199219.03125-.300781.046874-.28125.039063-.5625.089844-.835938.15625-.105468.023438-.210937.050782-.316406.082032-.28125.074218-.558594.160156-.828125.261718-.089844.03125-.179687.0625-.265625.097657-.355469.140625-.703125.292969-1.035156.476562-.003906 0-.003906 0-.003906 0-.003907 0-.003907 0-.003907 0-.015625.011719-.035156.019531-.050781.027344-47.53125 25.53125-97.445312 46.890625-148.351562 63.492187-4.117188 1.34375-6.898438 5.179688-6.898438 9.507813v65.710937c0 34.566407 5.972656 67.375 17.757812 97.503907.847657 2.164062 1.730469 4.3125 2.636719 6.453125.050781.125.109375.246094.164063.371094 7.910156 18.570312 18.097656 36.167968 30.460937 52.609374.105469.140626.210938.285157.324219.421876 6.140625 8.125 12.800781 15.972656 19.984375 23.511718 17.605469 18.472656 56.90625 50.480469 85.34375 60.523438.054687.019531.105469.027344.15625.046875.148437.050781.296875.09375.445313.136719.152343.042968.304687.082031.460937.117187.140625.03125.28125.066406.421875.09375.183594.03125.371094.058594.554688.082031.117187.015625.234374.035156.355468.046875.308594.027344.621094.046875.933594.046875s.625-.019531.9375-.046875c.121094-.011719.238281-.03125.359375-.046875.183594-.023437.363281-.050781.542969-.082031.148437-.027344.289062-.0625.4375-.09375.148437-.035156.296875-.074219.445312-.117187.152344-.042969.304688-.089844.457032-.136719.050781-.019531.101562-.03125.152343-.046875 28.429688-10.039063 67.730469-42.050782 85.34375-60.523438 7.1875-7.542968 13.851563-15.390625 19.992188-23.523437.097656-.117188.183593-.238281.269531-.355469 12.382812-16.453125 22.582031-34.066406 30.503906-52.65625.054688-.125.113282-.25.164063-.378906.90625-2.140625 1.792969-4.285156 2.640625-6.449219 11.785156-30.132813 17.757812-62.9375 17.757812-97.507813v-65.769531c0-4.320312-2.777344-8.152343-6.882812-9.5zm-293.121094 16.785157c44.433594-14.882813 88.074219-33.3125 130.035156-54.898438v14.488281c0 5.523438 4.476563 10 10 10 5.523438 0 10-4.476562 10-10v-14.515625c41.890625 21.472656 85.503906 39.886719 129.96875 54.855469v58.554687c0 29.3125-4.511718 56.820313-13.445312 82.398438l-119.484375-119.488281c-1.875-1.875-4.417969-2.925781-7.070313-2.925781s-5.195312 1.050781-7.070312 2.925781l-119.488282 119.488281c-8.933593-25.578125-13.445312-53.085938-13.445312-82.398438zm239.726562 194.058593-92.652343-92.65625c-1.875-1.875-4.417969-2.929687-7.070313-2.929687s-5.195312 1.054687-7.070312 2.929687l-92.65625 92.652344c-7.195313-10.566406-13.421875-21.582031-18.691406-33.023437l118.417968-118.421876 118.417969 118.421876c-5.273437 11.441406-11.5 22.457031-18.695313 33.027343zm-25.527343 31.5c-14.03125 14.71875-41.425781 37.265625-64.195313 49.425781v-15.570312c0-5.523438-4.476562-10-10-10-5.523437 0-10 4.476562-10 10v15.570312c-22.777344-12.15625-50.167968-34.707031-64.195312-49.425781-4.742188-4.976562-9.214844-10.082031-13.449219-15.300781l87.644531-87.644531 87.640625 87.644531c-4.230469 5.21875-8.703125 10.324219-13.445312 15.300781zm0 0"/><path d="m210.511719 44.5625c0 5.507812 4.492187 10 10 10 5.507812 0 10-4.492188 10-10 0-5.511719-4.492188-10.003906-10-10.003906-5.507813 0-10 4.496094-10 10.003906zm0 0"/><path d="m150.789062 84.191406c0 5.523438-4.476562 10-10 10-5.523437 0-10-4.476562-10-10 0-5.523437 4.476563-10 10-10 5.523438 0 10 4.476563 10 10zm0 0"/><path d="m67.503906 115.65625c0 5.523438-4.476562 10-10 10-5.523437 0-10-4.476562-10-10s4.476563-10 10-10c5.523438 0 10 4.476562 10 10zm0 0"/><path d="m50.5 192.195312c0 5.523438-4.476562 10-10 10s-10-4.476562-10-10c0-5.523437 4.476562-10 10-10s10 4.476563 10 10zm0 0"/><path d="m59.15625 280.558594c0 5.523437-4.476562 10-10 10s-10-4.476563-10-10c0-5.523438 4.476562-10 10-10s10 4.476562 10 10zm0 0"/><path d="m94.5 361.867188c0 5.523437-4.476562 10-10 10s-10-4.476563-10-10c0-5.523438 4.476562-10 10-10s10 4.476562 10 10zm0 0"/><path d="m153.738281 427.914062c0 5.519532-4.476562 10-10 10-5.523437 0-10-4.480468-10-10 0-5.523437 4.476563-10 10-10 5.523438 0 10 4.476563 10 10zm0 0"/><path d="m220.503906 461.890625c-5.507812 0-10 4.488281-10 10 0 5.507813 4.492188 10 10 10 5.503906 0 10-4.492187 10-10 0-5.511719-4.496094-10-10-10zm0 0"/><path d="m310.238281 84.191406c0 5.523438-4.476562 10-10 10-5.523437 0-10-4.476562-10-10 0-5.523437 4.476563-10 10-10 5.523438 0 10 4.476563 10 10zm0 0"/><path d="m393.523438 115.65625c0 5.523438-4.476563 10-10 10-5.523438 0-10.003907-4.476562-10.003907-10s4.480469-10 10.003907-10c5.523437 0 10 4.476562 10 10zm0 0"/><path d="m410.527344 192.195312c0 5.523438-4.476563 10-10 10-5.523438 0-10.003906-4.476562-10.003906-10 0-5.523437 4.480468-10 10.003906-10 5.523437 0 10 4.476563 10 10zm0 0"/><path d="m401.871094 280.558594c0 5.523437-4.476563 10-10 10-5.523438 0-10-4.476563-10-10 0-5.523438 4.476562-10 10-10 5.523437 0 10 4.476562 10 10zm0 0"/><path d="m366.527344 361.867188c0 5.523437-4.476563 10-10 10-5.523438 0-10-4.476563-10-10 0-5.523438 4.476562-10.003907 10-10.003907 5.523437 0 10 4.480469 10 10.003907zm0 0"/><path d="m307.285156 427.914062c0 5.519532-4.476562 9.996094-10 9.996094-5.519531 0-9.996094-4.476562-9.996094-9.996094 0-5.523437 4.476563-10 9.996094-10 5.523438 0 10 4.476563 10 10zm0 0"/><path d="m220.535156 148.769531c5.519532 0 10-4.480469 10-10v-.238281c0-5.523438-4.480468-10-10-10-5.523437 0-10 4.476562-10 10v.238281c0 5.519531 4.476563 10 10 10zm0 0"/><path d="m220.496094 370.65625c-5.519532 0-10 4.476562-10 10v.234375c0 5.523437 4.480468 10 10 10 5.523437 0 10-4.476563 10-10v-.234375c0-5.523438-4.476563-10-10-10zm0 0"/></g></svg>